<?xml version="1.0" standalone="no"?>
<!DOCTYPE svg PUBLIC "-//W3C//DTD SVG 20010904//EN"
 "http://www.w3.org/TR/2001/REC-SVG-20010904/DTD/svg10.dtd">
<svg version="1.0" xmlns="http://www.w3.org/2000/svg"
 width="50.000000pt" height="53.000000pt" viewBox="0 0 50.000000 53.000000"
 preserveAspectRatio="xMidYMid meet">
<metadata>
Created by potrace 1.16, written by Peter Selinger 2001-2019
</metadata>
<g transform="translate(0.000000,53.000000) scale(0.100000,-0.100000)"
fill="#000000" stroke="none">
<path d="M215 410 c-4 -16 -10 -30 -13 -30 -4 0 -24 11 -45 25 -42 29 -42 30
-22 -18 20 -48 20 -47 -22 -47 l-38 0 30 -25 30 -25 -35 -30 -35 -29 43 -1 43
0 -7 -37 c-7 -37 -6 -37 12 -22 38 32 43 31 60 -10 18 -47 30 -45 40 4 l6 35
28 -20 c32 -23 44 -25 37 -7 -20 54 -20 54 29 62 l47 7 -38 26 -37 26 29 23
28 23 -37 0 c-41 0 -44 5 -29 58 12 39 9 39 -34 7 l-33 -26 -7 31 c-8 38 -22
39 -30 0z"/>
</g>
</svg>
