<?xml version="1.0" standalone="no"?>
<!DOCTYPE svg PUBLIC "-//W3C//DTD SVG 20010904//EN"
 "http://www.w3.org/TR/2001/REC-SVG-20010904/DTD/svg10.dtd">
<svg version="1.0" xmlns="http://www.w3.org/2000/svg"
 width="354.000000pt" height="407.000000pt" viewBox="0 0 354.000000 407.000000"
 preserveAspectRatio="xMidYMid meet">
<metadata>
Created by potrace 1.16, written by Peter Selinger 2001-2019
</metadata>
<g transform="translate(0.000000,407.000000) scale(0.100000,-0.100000)"
fill="#000000" stroke="none">
<path d="M1467 3894 c-3 -31 -7 -57 -9 -58 -2 -2 -147 -76 -323 -166 -471
-239 -629 -322 -637 -334 -10 -16 11 -46 32 -46 19 0 20 -8 20 -153 0 -118 3
-158 14 -173 12 -15 18 -17 33 -8 16 10 18 29 21 173 l2 161 390 0 390 0 -1
-22 c0 -13 -10 -105 -22 -206 l-22 -183 -130 -68 c-71 -37 -257 -132 -412
-211 -243 -124 -283 -148 -283 -167 0 -16 8 -25 25 -29 24 -6 24 -7 27 -143
l3 -136 25 0 25 0 3 138 3 137 67 0 c203 2 587 -1 590 -5 2 -2 -2 -57 -8 -122
-12 -120 -33 -203 -200 -778 -64 -221 -180 -623 -209 -725 -28 -99 -119 -405
-146 -496 -14 -44 -25 -90 -25 -101 0 -49 32 -34 274 125 133 87 359 236 502
331 l262 172 313 -207 c776 -512 695 -462 716 -441 13 12 11 27 -17 118 -56
184 -93 309 -170 579 -28 96 -68 236 -90 310 -38 129 -83 287 -219 755 -47
164 -64 240 -76 344 -8 74 -13 136 -12 137 1 1 151 4 332 6 l330 3 -4 -121
c-2 -67 0 -130 3 -142 9 -27 32 -35 51 -16 12 12 15 42 15 142 0 122 1 128 23
137 12 6 22 19 22 30 0 16 -77 59 -405 227 -223 114 -409 209 -414 211 -4 1
-16 77 -27 167 -10 91 -21 184 -23 208 l-6 42 395 0 395 0 0 -165 c0 -139 2
-167 15 -171 8 -4 22 -1 30 6 12 10 15 43 15 171 0 149 1 159 19 159 23 0 45
25 38 44 -3 7 -18 20 -34 28 -171 86 -840 428 -878 449 -48 26 -50 30 -59 83
l-9 56 -272 0 -272 0 -6 -56z m145 -75 l70 -41 -29 -17 c-15 -9 -54 -32 -87
-50 l-58 -34 6 64 c9 79 16 119 23 119 2 0 36 -18 75 -41z m363 -58 l7 -84
-33 20 c-19 11 -55 33 -81 48 -27 15 -48 30 -48 33 0 11 135 81 141 74 4 -4
10 -45 14 -91z m-536 -63 c0 -62 -24 -306 -30 -312 -6 -7 -237 207 -238 220
-1 9 242 143 262 144 4 0 7 -24 6 -52z m756 -15 c74 -37 135 -70 135 -73 0 -8
-242 -231 -246 -227 -3 3 -34 317 -34 347 0 11 2 20 5 20 3 0 66 -30 140 -67z
m-352 2 c48 -27 87 -53 87 -57 0 -9 -178 -110 -188 -106 -27 11 -182 103 -182
107 1 8 183 111 191 108 3 -1 45 -24 92 -52z m-733 -206 c0 -66 -3 -90 -12
-87 -19 7 -127 102 -127 113 -1 12 120 75 132 68 4 -2 7 -45 7 -94z m480 55
c44 -25 80 -50 80 -54 0 -9 -171 -110 -185 -110 -4 0 -4 39 -1 88 7 88 13 122
22 122 3 0 41 -21 84 -46z m411 19 c0 -16 4 -63 7 -105 4 -43 4 -78 -1 -78
-12 0 -187 103 -187 110 0 8 153 99 168 100 6 0 12 -12 13 -27z m349 -93 l0
-110 -110 0 c-60 0 -110 3 -110 8 -1 6 210 211 218 212 1 0 2 -49 2 -110z
m-1085 0 c57 -52 100 -99 96 -103 -4 -4 -55 -6 -112 -5 l-104 3 -3 103 c-2 73
1 103 8 100 7 -2 58 -46 115 -98z m594 -81 c57 -33 99 -65 95 -69 -11 -10
-201 -120 -208 -120 -8 0 -202 115 -207 123 -4 8 188 126 206 126 6 1 57 -27
114 -60z m-288 -163 c51 -29 94 -57 96 -63 3 -8 -205 -133 -221 -133 -9 0 -7
50 6 156 6 52 15 94 19 94 4 0 49 -24 100 -54z m459 45 c0 -9 14 -119 25 -203
3 -23 1 -38 -5 -38 -17 0 -230 124 -227 133 2 8 187 116 200 117 4 0 7 -4 7
-9z m-166 -213 c61 -34 119 -67 129 -74 16 -10 4 -21 -108 -88 -69 -42 -131
-76 -137 -76 -15 0 -258 143 -258 152 0 7 240 147 254 148 5 0 59 -28 120 -62z
m-309 -204 c69 -42 124 -78 121 -81 -13 -13 -280 -172 -284 -169 -4 5 30 326
34 326 2 0 60 -34 129 -76z m530 -76 c9 -80 15 -153 13 -161 -2 -11 -38 7
-133 65 -71 43 -136 83 -143 87 -9 5 28 33 114 84 71 42 129 75 130 74 2 -1
10 -68 19 -149z m-759 -25 c-3 -27 -9 -92 -12 -146 -4 -54 -10 -99 -13 -101
-3 -2 -50 37 -104 88 l-98 91 108 57 c59 32 112 57 117 58 5 0 6 -21 2 -47z
m1063 -71 c0 -4 -44 -47 -97 -95 l-97 -89 -6 32 c-4 18 -10 86 -14 152 l-7
119 111 -55 c61 -31 111 -60 110 -64z m-486 -37 c81 -48 146 -93 144 -99 -6
-18 -291 -195 -306 -190 -23 7 -301 185 -301 193 0 7 303 190 310 187 3 -2 72
-43 153 -91z m-723 -85 l85 -80 -92 0 -93 0 0 80 c0 44 3 80 8 80 4 -1 45 -37
92 -80z m355 -152 c80 -50 145 -94 145 -97 0 -7 -343 -222 -347 -218 -3 3 37
377 43 395 2 6 6 12 9 12 3 0 71 -41 150 -92z m595 -30 c7 -68 18 -160 24
-205 7 -46 10 -83 8 -83 -7 0 -325 201 -339 214 -9 8 24 34 135 104 80 50 149
92 153 92 3 0 12 -55 19 -122z m-184 -229 c107 -67 196 -125 199 -129 4 -7
-356 -243 -390 -256 -11 -5 -255 143 -398 241 -16 11 5 27 180 138 109 69 202
126 207 126 4 1 95 -54 202 -120z m-432 -319 c91 -58 164 -109 163 -114 -3
-10 -557 -369 -562 -364 -3 3 83 305 154 546 l22 73 29 -18 c15 -10 103 -65
194 -123z m780 -174 c48 -164 85 -300 83 -302 -5 -5 -562 356 -560 364 2 12
378 250 384 244 4 -4 46 -142 93 -306z m-225 -183 c151 -98 273 -183 273 -188
-2 -10 -580 -395 -594 -395 -11 0 -599 387 -600 395 0 5 134 95 298 201 288
186 299 192 323 179 14 -8 149 -94 300 -192z m-683 -425 c161 -106 294 -196
294 -199 0 -4 -138 -98 -307 -210 -468 -309 -565 -371 -569 -366 -5 5 1 32 50
207 31 110 60 208 111 370 8 25 35 117 60 205 55 192 53 185 61 185 3 0 138
-87 300 -192z m1113 -101 c47 -160 97 -332 112 -382 47 -156 79 -272 79 -284
0 -17 -9 -12 -383 236 -186 123 -374 246 -418 274 -43 28 -79 54 -78 57 0 8
587 392 598 392 3 0 44 -132 90 -293z"/>
</g>
</svg>
